<svg xmlns="http://www.w3.org/2000/svg" xmlns:xlink="http://www.w3.org/1999/xlink" version="1.1" x="0px" y="0px" viewBox="0 0 100 125" enable-background="new 0 0 100 100" xml:space="preserve"><g transform="translate(0.000000,2000.000000) scale(0.100000,-0.100000)"><path fill="#000000" d="M477.021,19999.412c-129.98-7.578-245.312-82.139-306.279-197.979   c-33.945-64.482-48.145-142.656-38.525-211.465c13.896-98.936,77.92-228.408,187.695-379.873   c28.604-39.443,64.385-85.4,97.764-125.449c24.18-29.062,58.125-67.998,68.252-78.174c4.17-4.277,5.195-5.039,7.588-5.752   c4.834-1.426,9.512-0.713,13.027,1.982c5.752,4.326,49.004,53.896,80.713,92.373c146.729,178.184,242.363,341.299,270.352,461.104   c6.865,29.365,9.258,49.521,9.209,77.354c0,30.596-3.105,56.143-10.381,85.762c-30.635,125.498-126.777,227.09-250.342,264.648   C564.814,19996.463,519.619,20001.902,477.021,19999.412z M522.881,19969.949c29.209-2.295,56.641-7.793,83.154-16.65   c59.297-19.893,111.973-55.771,152.529-103.975c33.643-40,57.969-88.242,70.137-139.141c8.496-35.42,11.348-75.527,7.627-107.441   c-10.225-87.734-62.852-201.279-155.938-336.406c-45.342-65.859-101.836-138.281-159.346-204.336   c-12.363-14.248-22.49-25.449-22.9-25.449c-0.566,0-20.664,22.646-34.15,38.428c-2.344,2.793-6.367,7.48-8.906,10.43   c-42.9,50.283-92.373,114.053-130.137,167.9c-94.355,134.463-149.834,249.277-163.418,337.988   c-2.393,15.723-3.057,24.531-3.008,41.221c0.049,52.578,11.963,103.008,35.322,149.736   c39.805,79.541,107.793,139.697,191.562,169.424c31.201,11.045,64.385,17.305,100.518,18.984   C492.236,19970.965,515.801,19970.506,522.881,19969.949z"/><path fill="#000000" d="M485.674,19876.814c-74.404-4.785-139.756-47.695-173.291-113.799   c-10.898-21.377-17.559-43.213-20.918-68.154c-1.016-7.48-1.172-10.889-1.221-25.186c0-10.537,0.254-18.779,0.654-22.656   c5.4-48.291,25.957-91.299,60.107-125.498c34.355-34.355,78.33-55.068,127.793-60.107c9.316-0.967,32.119-0.811,41.23,0.303   c26.768,3.154,48.857,9.619,71.504,21.025c62.646,31.445,104.844,91.455,113.496,161.484c1.113,8.955,1.572,31.045,0.811,40.459   c-4.023,50.488-25.137,96.191-60.615,131.562c-34.15,33.994-78.174,54.912-125.703,59.746   C510,19876.961,494.121,19877.371,485.674,19876.814z M521.045,19846.58c28.76-4.072,53.027-13.184,76.084-28.555   c37.559-24.99,64.023-62.441,74.814-105.752c3.867-15.576,5.088-26.162,5.088-43.623c-0.049-13.584-0.4-18.467-2.334-29.922   c-7.48-44.834-32.266-85.449-69.014-113.037c-33.643-25.244-74.307-37.715-116.299-35.625   c-19.033,0.918-36.533,4.482-54.043,10.996c-7.842,2.9-24.834,11.299-32.012,15.771c-33.086,20.713-59.297,52.725-72.881,88.965   c-16.641,44.385-14.961,93.955,4.58,137.109c9.414,20.869,24.424,41.787,40.762,56.748c29.775,27.324,63.77,42.852,103.672,47.383   C487.91,19848.006,512.9,19847.703,521.045,19846.58z"/></g></svg>